<?xml version="1.0" encoding="UTF-8" standalone="no"?>
<!-- Created with Inkscape (http://www.inkscape.org/) -->

<svg
   version="1.1"
   id="svg2"
   width="334.06799"
   height="186.23067"
   viewBox="0 0 334.06799 186.23067"
   xmlns="http://www.w3.org/2000/svg"
   xmlns:svg="http://www.w3.org/2000/svg">
  <defs
     id="defs6" />
  <g
     id="g8"
     transform="matrix(1.3333333,0,0,-1.3333333,0,186.23067)">
    <g
       id="g10"
       transform="translate(68.583,40.236)">
      <g
         id="g12">
        <g
           id="g14">
          <g
             id="g16">
            <g
               id="g18">
              <path
                 d="m 13.99944,85.04042 c 0,7.73177 -6.26767,13.99944 -13.99944,13.99944 -7.73177,0 -13.99944,-6.26767 -13.99944,-13.99944 0,-7.73177 6.26767,-13.99943 13.99944,-13.99943 7.73177,0 13.99944,6.26766 13.99944,13.99943 z"
                 style="fill:none;stroke:#000000;stroke-width:0.79701;stroke-linecap:butt;stroke-linejoin:miter;stroke-miterlimit:10;stroke-dasharray:none;stroke-opacity:1"
                 id="path20" />
            </g>
            <g
               id="g22"
               transform="translate(-8.546,82.383)">
              <g
                 id="g24">
                <g
                   id="g26"
                   transform="translate(-60.037,-122.619)">
                  <text
                     xml:space="preserve"
                     transform="matrix(1,0,0,-1,60.037,122.619)"
                     style="font-variant:normal;font-weight:normal;font-size:9.9626px;font-family:CMMI10;-inkscape-font-specification:CMMI10;writing-mode:lr-tb;fill:#000000;fill-opacity:1;fill-rule:nonzero;stroke:none"
                     id="text30"><tspan
                       x="0"
                       y="0"
                       id="tspan28">P</tspan></text>
                  <text
                     xml:space="preserve"
                     transform="matrix(1,0,0,-1,66.433,121.125)"
                     style="font-variant:normal;font-weight:normal;font-size:6.9738px;font-family:CMR7;-inkscape-font-specification:CMR7;writing-mode:lr-tb;fill:#000000;fill-opacity:1;fill-rule:nonzero;stroke:none"
                     id="text34"><tspan
                       x="0 3.9715791 6.2269058"
                       y="0"
                       id="tspan32">1:5</tspan></text>
                  <g
                     id="g36"
                     transform="translate(60.037,122.619)" />
                </g>
              </g>
              <g
                 id="g38"
                 transform="translate(8.546,-82.383)" />
            </g>
          </g>
          <g
             id="g40">
            <g
               id="g42">
              <path
                 d="m -45.20213,28.3468 c 0,6.34665 -5.14484,11.49149 -11.49149,11.49149 -6.34663,0 -11.49147,-5.14484 -11.49147,-11.49149 0,-6.34665 5.14484,-11.49148 11.49147,-11.49148 6.34665,0 11.49149,5.14483 11.49149,11.49148 z"
                 style="fill:#dfdfdf;fill-opacity:1;fill-rule:nonzero;stroke:#000000;stroke-width:0.79701;stroke-linecap:butt;stroke-linejoin:miter;stroke-miterlimit:10;stroke-dasharray:none;stroke-opacity:1"
                 id="path44" />
            </g>
            <g
               id="g46"
               transform="translate(-62.126,25.69)">
              <g
                 id="g48">
                <g
                   id="g50"
                   transform="translate(-6.457,-65.926)">
                  <text
                     xml:space="preserve"
                     transform="matrix(1,0,0,-1,6.457,65.926)"
                     style="font-variant:normal;font-weight:normal;font-size:9.9626px;font-family:CMMI10;-inkscape-font-specification:CMMI10;writing-mode:lr-tb;fill:#000000;fill-opacity:1;fill-rule:nonzero;stroke:none"
                     id="text54"><tspan
                       x="0"
                       y="0"
                       id="tspan52">P</tspan></text>
                  <text
                     xml:space="preserve"
                     transform="matrix(1,0,0,-1,12.853,64.432)"
                     style="font-variant:normal;font-weight:normal;font-size:6.9738px;font-family:CMR7;-inkscape-font-specification:CMR7;writing-mode:lr-tb;fill:#000000;fill-opacity:1;fill-rule:nonzero;stroke:none"
                     id="text58"><tspan
                       x="0"
                       y="0"
                       id="tspan56">1</tspan></text>
                  <g
                     id="g60"
                     transform="translate(6.457,65.926)" />
                </g>
              </g>
              <g
                 id="g62"
                 transform="translate(62.126,-25.69)" />
            </g>
          </g>
          <g
             id="g64">
            <g
               id="g66">
              <path
                 d="m 13.99944,28.3468 c 0,7.73177 -6.26767,13.99944 -13.99944,13.99944 -7.73177,0 -13.99944,-6.26767 -13.99944,-13.99944 0,-7.73176 6.26767,-13.99943 13.99944,-13.99943 7.73177,0 13.99944,6.26767 13.99944,13.99943 z"
                 style="fill:none;stroke:#000000;stroke-width:0.79701;stroke-linecap:butt;stroke-linejoin:miter;stroke-miterlimit:10;stroke-dasharray:none;stroke-opacity:1"
                 id="path68" />
            </g>
            <g
               id="g70"
               transform="translate(-8.546,25.69)">
              <g
                 id="g72">
                <g
                   id="g74"
                   transform="translate(-60.037,-65.926)">
                  <text
                     xml:space="preserve"
                     transform="matrix(1,0,0,-1,60.037,65.926)"
                     style="font-variant:normal;font-weight:normal;font-size:9.9626px;font-family:CMMI10;-inkscape-font-specification:CMMI10;writing-mode:lr-tb;fill:#000000;fill-opacity:1;fill-rule:nonzero;stroke:none"
                     id="text78"><tspan
                       x="0"
                       y="0"
                       id="tspan76">P</tspan></text>
                  <text
                     xml:space="preserve"
                     transform="matrix(1,0,0,-1,66.433,64.432)"
                     style="font-variant:normal;font-weight:normal;font-size:6.9738px;font-family:CMR7;-inkscape-font-specification:CMR7;writing-mode:lr-tb;fill:#000000;fill-opacity:1;fill-rule:nonzero;stroke:none"
                     id="text82"><tspan
                       x="0 3.9715791 6.2269058"
                       y="0"
                       id="tspan80">2:3</tspan></text>
                  <g
                     id="g84"
                     transform="translate(60.037,65.926)" />
                </g>
              </g>
              <g
                 id="g86"
                 transform="translate(8.546,-25.69)" />
            </g>
          </g>
          <g
             id="g88">
            <g
               id="g90">
              <path
                 d="m 70.69305,28.3468 c 0,7.73177 -6.26767,13.99944 -13.99943,13.99944 -7.73178,0 -13.99945,-6.26767 -13.99945,-13.99944 0,-7.73176 6.26767,-13.99943 13.99945,-13.99943 7.73176,0 13.99943,6.26767 13.99943,13.99943 z"
                 style="fill:none;stroke:#000000;stroke-width:0.79701;stroke-linecap:butt;stroke-linejoin:miter;stroke-miterlimit:10;stroke-dasharray:none;stroke-opacity:1"
                 id="path92" />
            </g>
            <g
               id="g94"
               transform="translate(48.147,25.69)">
              <g
                 id="g96">
                <g
                   id="g98"
                   transform="translate(-116.73,-65.926)">
                  <text
                     xml:space="preserve"
                     transform="matrix(1,0,0,-1,116.73,65.926)"
                     style="font-variant:normal;font-weight:normal;font-size:9.9626px;font-family:CMMI10;-inkscape-font-specification:CMMI10;writing-mode:lr-tb;fill:#000000;fill-opacity:1;fill-rule:nonzero;stroke:none"
                     id="text102"><tspan
                       x="0"
                       y="0"
                       id="tspan100">P</tspan></text>
                  <text
                     xml:space="preserve"
                     transform="matrix(1,0,0,-1,123.126,64.432)"
                     style="font-variant:normal;font-weight:normal;font-size:6.9738px;font-family:CMR7;-inkscape-font-specification:CMR7;writing-mode:lr-tb;fill:#000000;fill-opacity:1;fill-rule:nonzero;stroke:none"
                     id="text106"><tspan
                       x="0 3.9715791 6.2269058"
                       y="0"
                       id="tspan104">4:5</tspan></text>
                  <g
                     id="g108"
                     transform="translate(116.73,65.926)" />
                </g>
              </g>
              <g
                 id="g110"
                 transform="translate(-48.147,-25.69)" />
            </g>
          </g>
          <g
             id="g112">
            <g
               id="g114">
              <path
                 d="m -2.68192,-28.3468 c 0,6.34665 -5.14483,11.49148 -11.49147,11.49148 -6.34664,0 -11.49148,-5.14483 -11.49148,-11.49148 0,-6.34665 5.14484,-11.49149 11.49148,-11.49149 6.34664,0 11.49147,5.14484 11.49147,11.49149 z"
                 style="fill:#dfdfdf;fill-opacity:1;fill-rule:nonzero;stroke:#000000;stroke-width:0.79701;stroke-linecap:butt;stroke-linejoin:miter;stroke-miterlimit:10;stroke-dasharray:2.98883, 2.98883;stroke-dashoffset:0;stroke-opacity:1"
                 id="path116" />
            </g>
            <g
               id="g118"
               transform="translate(-19.606,-31.003)">
              <g
                 id="g120">
                <g
                   id="g122"
                   transform="translate(-48.977,-9.233)">
                  <text
                     xml:space="preserve"
                     transform="matrix(1,0,0,-1,48.977,9.233)"
                     style="font-variant:normal;font-weight:normal;font-size:9.9626px;font-family:CMMI10;-inkscape-font-specification:CMMI10;writing-mode:lr-tb;fill:#000000;fill-opacity:1;fill-rule:nonzero;stroke:none"
                     id="text126"><tspan
                       x="0"
                       y="0"
                       id="tspan124">P</tspan></text>
                  <text
                     xml:space="preserve"
                     transform="matrix(1,0,0,-1,55.373,7.739)"
                     style="font-variant:normal;font-weight:normal;font-size:6.9738px;font-family:CMR7;-inkscape-font-specification:CMR7;writing-mode:lr-tb;fill:#000000;fill-opacity:1;fill-rule:nonzero;stroke:none"
                     id="text130"><tspan
                       x="0"
                       y="0"
                       id="tspan128">2</tspan></text>
                  <g
                     id="g132"
                     transform="translate(48.977,9.233)" />
                </g>
              </g>
              <g
                 id="g134"
                 transform="translate(19.606,31.003)" />
            </g>
          </g>
          <g
             id="g136">
            <g
               id="g138">
              <path
                 d="m 25.66487,-28.3468 c 0,6.34665 -5.14484,11.49148 -11.49148,11.49148 -6.34664,0 -11.49147,-5.14483 -11.49147,-11.49148 0,-6.34665 5.14483,-11.49149 11.49147,-11.49149 6.34664,0 11.49148,5.14484 11.49148,11.49149 z"
                 style="fill:#dfdfdf;fill-opacity:1;fill-rule:nonzero;stroke:#000000;stroke-width:0.79701;stroke-linecap:butt;stroke-linejoin:miter;stroke-miterlimit:10;stroke-dasharray:none;stroke-opacity:1"
                 id="path140" />
            </g>
            <g
               id="g142"
               transform="translate(8.74,-31.003)">
              <g
                 id="g144">
                <g
                   id="g146"
                   transform="translate(-77.323,-9.233)">
                  <text
                     xml:space="preserve"
                     transform="matrix(1,0,0,-1,77.323,9.233)"
                     style="font-variant:normal;font-weight:normal;font-size:9.9626px;font-family:CMMI10;-inkscape-font-specification:CMMI10;writing-mode:lr-tb;fill:#000000;fill-opacity:1;fill-rule:nonzero;stroke:none"
                     id="text150"><tspan
                       x="0"
                       y="0"
                       id="tspan148">P</tspan></text>
                  <text
                     xml:space="preserve"
                     transform="matrix(1,0,0,-1,83.719,7.739)"
                     style="font-variant:normal;font-weight:normal;font-size:6.9738px;font-family:CMR7;-inkscape-font-specification:CMR7;writing-mode:lr-tb;fill:#000000;fill-opacity:1;fill-rule:nonzero;stroke:none"
                     id="text154"><tspan
                       x="0"
                       y="0"
                       id="tspan152">3</tspan></text>
                  <g
                     id="g156"
                     transform="translate(77.323,9.233)" />
                </g>
              </g>
              <g
                 id="g158"
                 transform="translate(-8.74,31.003)" />
            </g>
          </g>
          <g
             id="g160">
            <g
               id="g162">
              <path
                 d="m 54.01167,-28.3468 c 0,6.34665 -5.14483,11.49148 -11.49147,11.49148 -6.34665,0 -11.49148,-5.14483 -11.49148,-11.49148 0,-6.34665 5.14483,-11.49149 11.49148,-11.49149 6.34664,0 11.49147,5.14484 11.49147,11.49149 z"
                 style="fill:#dfdfdf;fill-opacity:1;fill-rule:nonzero;stroke:#000000;stroke-width:0.79701;stroke-linecap:butt;stroke-linejoin:miter;stroke-miterlimit:10;stroke-dasharray:none;stroke-opacity:1"
                 id="path164" />
            </g>
            <g
               id="g166"
               transform="translate(37.087,-31.003)">
              <g
                 id="g168">
                <g
                   id="g170"
                   transform="translate(-105.67,-9.233)">
                  <text
                     xml:space="preserve"
                     transform="matrix(1,0,0,-1,105.67,9.233)"
                     style="font-variant:normal;font-weight:normal;font-size:9.9626px;font-family:CMMI10;-inkscape-font-specification:CMMI10;writing-mode:lr-tb;fill:#000000;fill-opacity:1;fill-rule:nonzero;stroke:none"
                     id="text174"><tspan
                       x="0"
                       y="0"
                       id="tspan172">P</tspan></text>
                  <text
                     xml:space="preserve"
                     transform="matrix(1,0,0,-1,112.066,7.739)"
                     style="font-variant:normal;font-weight:normal;font-size:6.9738px;font-family:CMR7;-inkscape-font-specification:CMR7;writing-mode:lr-tb;fill:#000000;fill-opacity:1;fill-rule:nonzero;stroke:none"
                     id="text178"><tspan
                       x="0"
                       y="0"
                       id="tspan176">4</tspan></text>
                  <g
                     id="g180"
                     transform="translate(105.67,9.233)" />
                </g>
              </g>
              <g
                 id="g182"
                 transform="translate(-37.087,31.003)" />
            </g>
          </g>
          <g
             id="g184">
            <g
               id="g186">
              <path
                 d="m 82.35849,-28.3468 c 0,6.34665 -5.14484,11.49148 -11.49149,11.49148 -6.34663,0 -11.49147,-5.14483 -11.49147,-11.49148 0,-6.34665 5.14484,-11.49149 11.49147,-11.49149 6.34665,0 11.49149,5.14484 11.49149,11.49149 z"
                 style="fill:#dfdfdf;fill-opacity:1;fill-rule:nonzero;stroke:#000000;stroke-width:0.79701;stroke-linecap:butt;stroke-linejoin:miter;stroke-miterlimit:10;stroke-dasharray:none;stroke-opacity:1"
                 id="path188" />
            </g>
            <g
               id="g190"
               transform="translate(65.433,-31.003)">
              <g
                 id="g192">
                <g
                   id="g194"
                   transform="translate(-134.016,-9.233)">
                  <text
                     xml:space="preserve"
                     transform="matrix(1,0,0,-1,134.016,9.233)"
                     style="font-variant:normal;font-weight:normal;font-size:9.9626px;font-family:CMMI10;-inkscape-font-specification:CMMI10;writing-mode:lr-tb;fill:#000000;fill-opacity:1;fill-rule:nonzero;stroke:none"
                     id="text198"><tspan
                       x="0"
                       y="0"
                       id="tspan196">P</tspan></text>
                  <text
                     xml:space="preserve"
                     transform="matrix(1,0,0,-1,140.412,7.739)"
                     style="font-variant:normal;font-weight:normal;font-size:6.9738px;font-family:CMR7;-inkscape-font-specification:CMR7;writing-mode:lr-tb;fill:#000000;fill-opacity:1;fill-rule:nonzero;stroke:none"
                     id="text202"><tspan
                       x="0"
                       y="0"
                       id="tspan200">5</tspan></text>
                  <g
                     id="g204"
                     transform="translate(134.016,9.233)" />
                </g>
              </g>
              <g
                 id="g206"
                 transform="translate(-65.433,31.003)" />
            </g>
          </g>
          <g
             id="g208">
            <g
               id="g210">
              <path
                 d="m 127.38667,85.04042 c 0,7.73177 -6.26767,13.99944 -13.99943,13.99944 -7.73178,0 -13.99945,-6.26767 -13.99945,-13.99944 0,-7.73177 6.26767,-13.99943 13.99945,-13.99943 7.73176,0 13.99943,6.26766 13.99943,13.99943 z"
                 style="fill:none;stroke:#000000;stroke-width:0.79701;stroke-linecap:butt;stroke-linejoin:miter;stroke-miterlimit:10;stroke-dasharray:none;stroke-opacity:1"
                 id="path212" />
            </g>
            <g
               id="g214"
               transform="translate(104.839,82.383)">
              <g
                 id="g216">
                <g
                   id="g218"
                   transform="translate(-173.422,-122.619)">
                  <text
                     xml:space="preserve"
                     transform="matrix(1,0,0,-1,173.422,122.619)"
                     style="font-variant:normal;font-weight:normal;font-size:9.9626px;font-family:CMMI10;-inkscape-font-specification:CMMI10;writing-mode:lr-tb;fill:#000000;fill-opacity:1;fill-rule:nonzero;stroke:none"
                     id="text222"><tspan
                       x="0"
                       y="0"
                       id="tspan220">P</tspan></text>
                  <text
                     xml:space="preserve"
                     transform="matrix(1,0,0,-1,179.819,121.124)"
                     style="font-variant:normal;font-weight:normal;font-size:6.9738px;font-family:CMR7;-inkscape-font-specification:CMR7;writing-mode:lr-tb;fill:#000000;fill-opacity:1;fill-rule:nonzero;stroke:none"
                     id="text226"><tspan
                       x="0 3.9715791 6.2269058"
                       y="0"
                       id="tspan224">6:7</tspan></text>
                  <g
                     id="g228"
                     transform="translate(173.422,122.619)" />
                </g>
              </g>
              <g
                 id="g230"
                 transform="translate(-104.839,-82.383)" />
            </g>
          </g>
          <g
             id="g232">
            <g
               id="g234">
              <path
                 d="m 110.70529,28.3468 c 0,6.34665 -5.14483,11.49149 -11.49147,11.49149 -6.34665,0 -11.49148,-5.14484 -11.49148,-11.49149 0,-6.34665 5.14483,-11.49148 11.49148,-11.49148 6.34664,0 11.49147,5.14483 11.49147,11.49148 z"
                 style="fill:#dfdfdf;fill-opacity:1;fill-rule:nonzero;stroke:#000000;stroke-width:0.79701;stroke-linecap:butt;stroke-linejoin:miter;stroke-miterlimit:10;stroke-dasharray:2.98883, 2.98883;stroke-dashoffset:0;stroke-opacity:1"
                 id="path236" />
            </g>
            <g
               id="g238"
               transform="translate(93.78,25.69)">
              <g
                 id="g240">
                <g
                   id="g242"
                   transform="translate(-162.363,-65.926)">
                  <text
                     xml:space="preserve"
                     transform="matrix(1,0,0,-1,162.363,65.926)"
                     style="font-variant:normal;font-weight:normal;font-size:9.9626px;font-family:CMMI10;-inkscape-font-specification:CMMI10;writing-mode:lr-tb;fill:#000000;fill-opacity:1;fill-rule:nonzero;stroke:none"
                     id="text246"><tspan
                       x="0"
                       y="0"
                       id="tspan244">P</tspan></text>
                  <text
                     xml:space="preserve"
                     transform="matrix(1,0,0,-1,168.759,64.432)"
                     style="font-variant:normal;font-weight:normal;font-size:6.9738px;font-family:CMR7;-inkscape-font-specification:CMR7;writing-mode:lr-tb;fill:#000000;fill-opacity:1;fill-rule:nonzero;stroke:none"
                     id="text250"><tspan
                       x="0"
                       y="0"
                       id="tspan248">6</tspan></text>
                  <g
                     id="g252"
                     transform="translate(162.363,65.926)" />
                </g>
              </g>
              <g
                 id="g254"
                 transform="translate(-93.78,-25.69)" />
            </g>
          </g>
          <g
             id="g256">
            <g
               id="g258">
              <path
                 d="m 139.05211,28.3468 c 0,6.34665 -5.14484,11.49149 -11.49149,11.49149 -6.34663,0 -11.49147,-5.14484 -11.49147,-11.49149 0,-6.34665 5.14484,-11.49148 11.49147,-11.49148 6.34665,0 11.49149,5.14483 11.49149,11.49148 z"
                 style="fill:#dfdfdf;fill-opacity:1;fill-rule:nonzero;stroke:#000000;stroke-width:0.79701;stroke-linecap:butt;stroke-linejoin:miter;stroke-miterlimit:10;stroke-dasharray:none;stroke-opacity:1"
                 id="path260" />
            </g>
            <g
               id="g262"
               transform="translate(122.126,25.69)">
              <g
                 id="g264">
                <g
                   id="g266"
                   transform="translate(-190.709,-65.926)">
                  <text
                     xml:space="preserve"
                     transform="matrix(1,0,0,-1,190.709,65.926)"
                     style="font-variant:normal;font-weight:normal;font-size:9.9626px;font-family:CMMI10;-inkscape-font-specification:CMMI10;writing-mode:lr-tb;fill:#000000;fill-opacity:1;fill-rule:nonzero;stroke:none"
                     id="text270"><tspan
                       x="0"
                       y="0"
                       id="tspan268">P</tspan></text>
                  <text
                     xml:space="preserve"
                     transform="matrix(1,0,0,-1,197.105,64.432)"
                     style="font-variant:normal;font-weight:normal;font-size:6.9738px;font-family:CMR7;-inkscape-font-specification:CMR7;writing-mode:lr-tb;fill:#000000;fill-opacity:1;fill-rule:nonzero;stroke:none"
                     id="text274"><tspan
                       x="0"
                       y="0"
                       id="tspan272">7</tspan></text>
                  <g
                     id="g276"
                     transform="translate(190.709,65.926)" />
                </g>
              </g>
              <g
                 id="g278"
                 transform="translate(-122.126,-25.69)" />
            </g>
          </g>
          <g
             id="g280">
            <g
               id="g282">
              <path
                 d="m 181.57233,85.04042 c 0,6.34665 -5.14484,11.49148 -11.49147,11.49148 -6.34666,0 -11.49149,-5.14483 -11.49149,-11.49148 0,-6.34665 5.14483,-11.49149 11.49149,-11.49149 6.34663,0 11.49147,5.14484 11.49147,11.49149 z"
                 style="fill:#dfdfdf;fill-opacity:1;fill-rule:nonzero;stroke:#000000;stroke-width:0.79701;stroke-linecap:butt;stroke-linejoin:miter;stroke-miterlimit:10;stroke-dasharray:2.98883, 2.98883;stroke-dashoffset:0;stroke-opacity:1"
                 id="path284" />
            </g>
            <g
               id="g286"
               transform="translate(164.646,82.383)">
              <g
                 id="g288">
                <g
                   id="g290"
                   transform="translate(-233.229,-122.619)">
                  <text
                     xml:space="preserve"
                     transform="matrix(1,0,0,-1,233.229,122.619)"
                     style="font-variant:normal;font-weight:normal;font-size:9.9626px;font-family:CMMI10;-inkscape-font-specification:CMMI10;writing-mode:lr-tb;fill:#000000;fill-opacity:1;fill-rule:nonzero;stroke:none"
                     id="text294"><tspan
                       x="0"
                       y="0"
                       id="tspan292">P</tspan></text>
                  <text
                     xml:space="preserve"
                     transform="matrix(1,0,0,-1,239.625,121.125)"
                     style="font-variant:normal;font-weight:normal;font-size:6.9738px;font-family:CMR7;-inkscape-font-specification:CMR7;writing-mode:lr-tb;fill:#000000;fill-opacity:1;fill-rule:nonzero;stroke:none"
                     id="text298"><tspan
                       x="0"
                       y="0"
                       id="tspan296">8</tspan></text>
                  <g
                     id="g300"
                     transform="translate(233.229,122.619)" />
                </g>
              </g>
              <g
                 id="g302"
                 transform="translate(-164.646,-82.383)" />
            </g>
          </g>
          <g
             id="g304">
            <path
               d="M -10.18088,74.85954 -44.22836,40.81204"
               style="fill:none;stroke:#000000;stroke-width:1.19553;stroke-linecap:butt;stroke-linejoin:miter;stroke-miterlimit:10;stroke-dasharray:none;stroke-opacity:1"
               id="path306" />
            <g
               id="g308"
               transform="matrix(-0.7071,-0.7071,0.7071,-0.7071,-44.22835,40.81206)">
              <g
                 id="g310">
                <path
                   d="M 5.73854,0 C 4.0382,0.31879 1.27522,1.27522 -0.6376,2.39105 v -4.7821 C 1.27522,-1.27522 4.0382,-0.31879 5.73854,0"
                   style="fill:#000000;fill-opacity:1;fill-rule:nonzero;stroke:none"
                   id="path312" />
              </g>
            </g>
          </g>
          <g
             id="g314">
            <path
               d="M 0,70.64247 V 48.48329"
               style="fill:none;stroke:#000000;stroke-width:1.19553;stroke-linecap:butt;stroke-linejoin:miter;stroke-miterlimit:10;stroke-dasharray:none;stroke-opacity:1"
               id="path316" />
            <g
               id="g318"
               transform="rotate(-90,24.241645,24.241645)">
              <g
                 id="g320">
                <path
                   d="M 5.73854,0 C 4.0382,0.31879 1.27522,1.27522 -0.6376,2.39105 v -4.7821 C 1.27522,-1.27522 4.0382,-0.31879 5.73854,0"
                   style="fill:#000000;fill-opacity:1;fill-rule:nonzero;stroke:none"
                   id="path322" />
              </g>
            </g>
          </g>
          <g
             id="g324">
            <path
               d="M 10.18088,74.85954 42.45497,42.58545"
               style="fill:none;stroke:#000000;stroke-width:1.19553;stroke-linecap:butt;stroke-linejoin:miter;stroke-miterlimit:10;stroke-dasharray:none;stroke-opacity:1"
               id="path326" />
            <g
               id="g328"
               transform="matrix(0.7071,-0.7071,0.7071,0.7071,42.45496,42.58546)">
              <g
                 id="g330">
                <path
                   d="M 5.73854,0 C 4.0382,0.31879 1.27522,1.27522 -0.6376,2.39105 v -4.7821 C 1.27522,-1.27522 4.0382,-0.31879 5.73854,0"
                   style="fill:#000000;fill-opacity:1;fill-rule:nonzero;stroke:none"
                   id="path332" />
              </g>
            </g>
          </g>
          <g
             id="g334">
            <path
               d="M 3.4916,14.37881 9.89816,-11.2448"
               style="fill:none;stroke:#000000;stroke-width:1.19553;stroke-linecap:butt;stroke-linejoin:miter;stroke-miterlimit:10;stroke-dasharray:none;stroke-opacity:1"
               id="path336" />
            <g
               id="g338"
               transform="matrix(0.24254,-0.97012,0.97012,0.24254,9.89816,-11.24478)">
              <g
                 id="g340">
                <path
                   d="M 5.73854,0 C 4.0382,0.31879 1.27522,1.27522 -0.6376,2.39105 v -4.7821 C 1.27522,-1.27522 4.0382,-0.31879 5.73854,0"
                   style="fill:#000000;fill-opacity:1;fill-rule:nonzero;stroke:none"
                   id="path342" />
              </g>
            </g>
          </g>
          <g
             id="g344">
            <path
               d="m -3.4916,14.37881 -6.66755,-26.66752"
               style="fill:none;stroke:#000000;stroke-width:0.79701;stroke-linecap:butt;stroke-linejoin:miter;stroke-miterlimit:10;stroke-dasharray:2.98883, 2.98883;stroke-dashoffset:0;stroke-opacity:1"
               id="path346" />
            <g
               id="g348"
               transform="matrix(-0.24254,-0.97012,0.97012,-0.24254,-10.15915,-12.2887)">
              <g
                 id="g350">
                <path
                   d="M 4.66248,0 C 3.28098,0.25902 1.0361,1.0361 -0.51805,1.94269 V -1.94269 C 1.0361,-1.0361 3.28098,-0.25902 4.66248,0"
                   style="fill:#000000;fill-opacity:1;fill-rule:nonzero;stroke:none"
                   id="path352" />
              </g>
            </g>
          </g>
          <g
             id="g354">
            <path
               d="M 53.20201,14.37881 46.79543,-11.2448"
               style="fill:none;stroke:#000000;stroke-width:1.19553;stroke-linecap:butt;stroke-linejoin:miter;stroke-miterlimit:10;stroke-dasharray:none;stroke-opacity:1"
               id="path356" />
            <g
               id="g358"
               transform="matrix(-0.24254,-0.97012,0.97012,-0.24254,46.79543,-11.24478)">
              <g
                 id="g360">
                <path
                   d="M 5.73854,0 C 4.0382,0.31879 1.27522,1.27522 -0.6376,2.39105 v -4.7821 C 1.27522,-1.27522 4.0382,-0.31879 5.73854,0"
                   style="fill:#000000;fill-opacity:1;fill-rule:nonzero;stroke:none"
                   id="path362" />
              </g>
            </g>
          </g>
          <g
             id="g364">
            <path
               d="M 60.18521,14.37881 66.59178,-11.2448"
               style="fill:none;stroke:#000000;stroke-width:1.19553;stroke-linecap:butt;stroke-linejoin:miter;stroke-miterlimit:10;stroke-dasharray:none;stroke-opacity:1"
               id="path366" />
            <g
               id="g368"
               transform="matrix(0.24254,-0.97012,0.97012,0.24254,66.59178,-11.24478)">
              <g
                 id="g370">
                <path
                   d="M 5.73854,0 C 4.0382,0.31879 1.27522,1.27522 -0.6376,2.39105 v -4.7821 C 1.27522,-1.27522 4.0382,-0.31879 5.73854,0"
                   style="fill:#000000;fill-opacity:1;fill-rule:nonzero;stroke:none"
                   id="path372" />
              </g>
            </g>
          </g>
          <g
             id="g374">
            <path
               d="M 116.87883,71.07243 123.2854,45.44882"
               style="fill:none;stroke:#000000;stroke-width:1.19553;stroke-linecap:butt;stroke-linejoin:miter;stroke-miterlimit:10;stroke-dasharray:none;stroke-opacity:1"
               id="path376" />
            <g
               id="g378"
               transform="matrix(0.24254,-0.97012,0.97012,0.24254,123.2854,45.44884)">
              <g
                 id="g380">
                <path
                   d="M 5.73854,0 C 4.0382,0.31879 1.27522,1.27522 -0.6376,2.39105 v -4.7821 C 1.27522,-1.27522 4.0382,-0.31879 5.73854,0"
                   style="fill:#000000;fill-opacity:1;fill-rule:nonzero;stroke:none"
                   id="path382" />
              </g>
            </g>
          </g>
          <g
             id="g384">
            <path
               d="M 109.89563,71.07243 103.22806,44.40489"
               style="fill:none;stroke:#000000;stroke-width:0.79701;stroke-linecap:butt;stroke-linejoin:miter;stroke-miterlimit:10;stroke-dasharray:2.98883, 2.98883;stroke-dashoffset:0;stroke-opacity:1"
               id="path386" />
            <g
               id="g388"
               transform="matrix(-0.24254,-0.97012,0.97012,-0.24254,103.22806,44.4049)">
              <g
                 id="g390">
                <path
                   d="M 4.66248,0 C 3.28098,0.25902 1.0361,1.0361 -0.51805,1.94269 V -1.94269 C 1.0361,-1.0361 3.28098,-0.25902 4.66248,0"
                   style="fill:#000000;fill-opacity:1;fill-rule:nonzero;stroke:none"
                   id="path392" />
              </g>
            </g>
          </g>
        </g>
      </g>
    </g>
  </g>
</svg>
